<?xml version="1.0" standalone="no"?>
<!DOCTYPE svg PUBLIC "-//W3C//DTD SVG 20010904//EN"
 "http://www.w3.org/TR/2001/REC-SVG-20010904/DTD/svg10.dtd">
<svg version="1.0" xmlns="http://www.w3.org/2000/svg"
 width="768.000000pt" height="768.000000pt" viewBox="0 0 768.000000 768.000000"
 preserveAspectRatio="xMidYMid meet">
<metadata>
Created by potrace 1.11, written by Peter Selinger 2001-2013
</metadata>
<g transform="translate(0.000000,768.000000) scale(0.100000,-0.100000)"
fill="#000000" stroke="none">
<path d="M3764 6813 c-19 -18 -33 -37 -29 -42 3 -5 2 -12 -3 -15 -4 -2 -7 -53
-6 -113 1 -105 -5 -133 -31 -133 -15 0 -115 -95 -115 -110 0 -5 -5 -10 -10
-10 -6 0 -9 -3 -8 -7 1 -5 -3 -18 -10 -30 -7 -13 -10 -23 -6 -23 3 0 1 -6 -5
-14 -6 -7 -9 -21 -5 -30 3 -9 2 -16 -2 -16 -5 0 -9 -13 -9 -30 -1 -16 3 -30 8
-30 4 0 6 -9 2 -19 -3 -11 -1 -22 4 -25 23 -15 -3 -34 -56 -41 -85 -10 -308
-69 -418 -110 -228 -84 -511 -248 -685 -397 l-75 -64 -693 0 c-380 1 -692 -3
-692 -7 0 -5 -4 -6 -8 -3 -5 3 -24 -10 -43 -28 l-34 -34 0 -843 0 -843 33 -33
c18 -19 38 -31 43 -27 5 3 15 2 22 -3 7 -5 148 -8 314 -8 l302 1 5 -41 c3 -22
10 -83 16 -135 24 -214 97 -463 196 -669 30 -62 54 -117 54 -120 0 -4 -203 -7
-450 -7 -248 1 -450 -2 -450 -6 0 -5 -4 -7 -9 -5 -5 1 -25 -12 -43 -29 l-33
-31 0 -842 0 -841 31 -34 c17 -18 38 -32 47 -30 9 1 17 -1 17 -4 0 -6 1998 -6
2039 -1 24 4 65 53 76 92 2 4 4 8 5 10 1 1 3 67 4 147 l1 145 248 0 c192 1
250 -2 259 -12 6 -7 7 -13 2 -13 -4 0 1 -7 12 -15 10 -8 16 -15 12 -15 -12 0
70 -80 82 -80 6 0 13 -7 16 -15 4 -8 10 -12 15 -9 5 3 9 0 9 -6 0 -6 4 -9 8
-6 5 3 8 -45 7 -107 0 -62 3 -117 7 -123 5 -7 7 -16 6 -21 -3 -9 48 -62 61
-64 47 -8 83 -3 106 16 14 13 25 27 25 34 0 6 4 11 8 11 11 0 12 4 14 135 3
112 9 135 33 135 15 0 115 95 115 110 0 5 4 10 10 10 5 0 9 3 8 8 -1 4 3 17
10 30 7 12 10 22 6 22 -3 0 -1 6 5 14 6 7 9 21 5 30 -3 9 -2 16 2 16 5 0 9 13
9 30 1 16 -3 30 -8 30 -4 0 -6 9 -2 19 3 11 1 22 -5 26 -6 3 -7 11 -4 17 4 6
2 13 -4 17 -6 3 -12 13 -14 21 -4 19 -16 34 -65 83 -57 57 -70 67 -77 60 -3
-4 -6 -1 -6 6 0 7 -4 10 -8 7 -4 -2 -8 229 -8 514 0 285 4 516 8 514 4 -3 8 0
8 6 0 6 4 9 9 6 5 -3 12 1 15 10 4 9 9 14 12 12 7 -8 92 75 87 85 -2 4 1 7 6
7 6 0 11 5 11 11 0 31 26 35 263 35 130 0 237 -2 237 -6 0 -8 -107 -34 -230
-55 -52 -9 -96 -18 -98 -20 -2 -2 7 -19 21 -37 40 -52 86 -158 102 -234 11
-53 15 -153 15 -437 0 -394 3 -417 51 -451 38 -26 99 -19 214 25 204 79 479
239 623 363 30 25 57 47 60 47 4 1 313 3 687 4 374 1 692 5 707 8 24 5 76 48
79 66 7 38 3 1671 -4 1685 -17 34 -43 57 -73 63 -16 3 -160 6 -320 6 l-291 1
-6 106 c-15 241 -80 499 -193 755 -24 55 -44 102 -44 105 0 3 183 6 408 7 224
0 420 2 436 4 28 4 89 53 78 64 -3 3 -1 5 4 5 5 0 9 337 9 840 l0 840 -31 33
c-17 17 -37 34 -45 36 -27 8 -2041 6 -2046 -2 -2 -4 -8 -5 -13 -2 -10 6 -73
-55 -79 -76 -2 -8 -4 -81 -5 -164 l-1 -150 -248 0 c-190 -1 -251 2 -259 12 -6
7 -7 13 -2 13 4 0 -1 7 -12 15 -10 8 -16 15 -11 15 11 0 -67 76 -86 83 -9 3
-17 11 -17 17 0 6 -4 8 -10 5 -5 -3 -10 -1 -10 5 0 6 -4 9 -8 6 -5 -3 -8 46
-8 109 1 63 -3 115 -7 115 -5 0 -7 8 -5 18 2 16 -43 70 -61 73 -56 10 -84 3
-117 -28z m513 -689 c-3 -3 -12 -4 -19 -1 -8 3 -5 6 6 6 11 1 17 -2 13 -5z
m349 -46 c0 -26 -3 -48 -6 -48 -4 0 -31 8 -61 19 -30 10 -99 29 -154 41 -55
13 -103 27 -108 30 -4 4 68 6 160 6 l168 0 1 -48z m-1846 -873 l46 -6 0 -622
0 -623 -210 0 -209 0 6 100 c10 170 71 339 174 485 l46 64 -18 56 c-23 71 -32
264 -16 355 6 36 20 95 31 130 21 67 32 77 80 71 14 -2 45 -6 70 -10z m2280 5
c4 0 12 -13 18 -28 l9 -28 -118 0 c-66 0 -119 3 -119 6 0 3 4 10 8 17 12 18
145 45 180 36 8 -1 17 -3 22 -3z m-1938 -136 c34 -19 84 -49 109 -65 l46 -29
64 15 c69 17 318 55 359 55 25 0 26 -2 25 -57 0 -61 -8 -83 -29 -83 -16 0
-116 -95 -116 -110 0 -5 -5 -10 -10 -10 -6 0 -9 -3 -9 -7 4 -27 -11 -29 -254
-29 l-253 0 0 178 c0 98 1 178 2 178 1 0 31 -16 66 -36z m1506 -21 c1 -16 3
-35 5 -43 4 -24 61 -75 80 -72 9 2 17 0 17 -5 0 -4 90 -8 200 -7 l200 0 0 -81
c0 -49 -8 -113 -20 -162 l-21 -81 50 -66 c106 -140 161 -300 164 -476 l2 -105
-285 -1 c-157 -1 -287 -3 -290 -4 -3 -1 -13 -3 -22 -5 -22 -4 -79 -65 -72 -77
3 -4 2 -8 -3 -8 -4 0 -8 -159 -8 -352 l0 -353 -252 0 c-138 -1 -249 3 -247 7
3 4 0 8 -6 8 -6 0 -9 4 -6 9 3 5 -1 12 -10 15 -9 4 -14 9 -11 12 7 7 -113 123
-120 116 -2 -1 -7 -2 -11 -2 -10 0 -9 1021 1 1038 5 6 14 12 22 12 15 0 115
95 115 110 0 5 5 10 10 10 6 0 9 3 8 8 -1 4 3 17 10 30 7 12 10 22 6 22 -3 0
-1 6 5 14 6 7 9 21 5 30 -3 9 -2 16 2 16 5 0 9 14 9 30 1 17 -3 30 -8 30 -4 0
-6 9 -2 19 3 11 1 22 -5 26 -6 3 -7 11 -4 17 4 6 2 13 -4 17 -6 3 -12 13 -14
21 -4 19 -16 34 -65 83 -57 57 -70 67 -77 60 -3 -4 -6 -1 -6 6 0 7 -4 10 -8 7
-5 -3 -9 24 -8 59 l0 65 46 0 c56 0 281 -33 374 -54 l68 -16 82 50 c44 27 86
50 92 50 6 0 12 -12 12 -27z m-1068 -535 c0 -5 0 -11 -1 -14 0 -3 8 -12 18
-20 10 -7 15 -14 11 -14 -12 0 70 -80 82 -80 6 0 13 -7 16 -15 4 -8 10 -12 15
-9 5 3 9 0 9 -6 0 -6 4 -9 8 -6 4 2 8 -229 8 -514 0 -285 -4 -516 -8 -514 -4
3 -8 0 -8 -6 0 -6 -4 -8 -10 -5 -5 3 -10 1 -10 -4 0 -6 -4 -11 -10 -11 -13 0
-110 -99 -110 -113 0 -7 -7 -21 -15 -31 -8 -10 -12 -23 -9 -27 3 -5 2 -9 -3
-9 -4 0 -9 -13 -10 -28 -1 -15 -4 -40 -7 -55 -2 -15 -1 -27 4 -27 4 0 7 -11 5
-25 -1 -14 2 -25 7 -25 6 0 8 -7 4 -15 -3 -8 -1 -15 5 -15 6 0 7 -4 4 -10 -3
-5 -1 -10 4 -10 6 0 11 -6 11 -14 0 -17 106 -126 114 -118 4 3 6 0 6 -6 0 -7
3 -11 8 -11 4 1 12 1 17 0 15 -1 15 -1041 0 -1042 -5 -1 -13 -1 -17 0 -5 0 -8
-3 -8 -9 0 -5 -5 -10 -10 -10 -14 0 -109 -98 -102 -105 3 -3 0 -5 -7 -5 -7 0
-9 -4 -6 -10 3 -5 1 -10 -5 -10 -6 0 -9 -4 -6 -8 2 -4 -109 -8 -248 -8 l-252
0 0 66 0 67 59 -19 c70 -22 119 -13 158 28 24 26 24 26 24 247 l0 222 -30 -2
c-16 -1 -71 -5 -121 -9 l-90 -7 0 157 c1 169 3 175 56 176 14 0 61 13 104 28
l79 27 18 71 c21 87 57 159 98 199 17 17 31 33 31 37 0 3 -33 11 -72 18 -372
59 -613 185 -771 402 -69 94 -167 355 -167 442 l0 22 260 0 c151 -1 260 3 260
8 0 5 3 7 6 3 13 -13 62 24 80 60 16 35 18 69 18 384 l0 345 253 0 c139 -1
253 -4 253 -8z m1724 -863 c-39 -203 -135 -396 -256 -512 -50 -48 -158 -124
-167 -119 -5 4 -7 699 -2 702 0 0 99 0 219 0 l219 0 -13 -71z m-2881 -743 c67
-33 134 -86 166 -131 l20 -27 -127 1 -127 0 -67 48 c-71 51 -111 93 -105 111
15 46 144 45 240 -2z m414 -395 c4 -5 8 -80 8 -168 0 -130 -2 -159 -14 -159
-26 0 -136 68 -180 112 -53 52 -82 96 -115 169 l-24 56 158 -1 c87 -1 162 -5
167 -9z"/>
</g>
</svg>
